# xmcd
#
# Track frame offsets: 
#        150
#        21057
#        49377
#        72566
#        100218
#        137364
#        166814
#        192076
#        221785
#        254773
#        288661
#        316601
#
# Disc length: 4415 seconds
#
# Revision: 0
# Processed by: cddbd v1.5.2PL0 Copyright (c) Steve Scherf et al.
# Submitted via: ExactAudioCopy v0.99pb4
#
DISCID=b3113d0c
DTITLE=Various Artist - The Pins
DYEAR=1900
DGENRE=House
TTITLE0=scorpio - walk Alone
TTITLE1=closer - Singles (Novox Remix)
TTITLE2=And.ID - IJo
TTITLE3=Lemos - Gap
TTITLE4=Mud Max - Hungry Motherfucker
TTITLE5=Novox - Burn Your Shoes
TTITLE6=THe Glitz - Demostration (Nitsch and Gleinser Edit)
TTITLE7=Adaptor - Meteor (Freestyle Man and Thirsty Monk Remix)
TTITLE8=Mathias Schaffhauser - Coincidance (Trentemoeller Remix)
TTITLE9=Savas Pascalidis - Saigon Nightmare (Arnaud Rebotini Mix)
TTITLE10=Miss Yetti - Sideways
TTITLE11=Popnebo - Mental Support
EXTD=
EXTT0=
EXTT1=
EXTT2=
EXTT3=
EXTT4=
EXTT5=
EXTT6=
EXTT7=
EXTT8=
EXTT9=
EXTT10=
EXTT11=
PLAYORDER=
